<?xml version="1.0" encoding="UTF-8"?>
<svg width="700px" height="86px" viewBox="0 0 700 86" version="1.1" xmlns="http://www.w3.org/2000/svg" xmlns:xlink="http://www.w3.org/1999/xlink">
    <title>chefpoint-logo-dark</title>
    <g id="chefpoint-logo-dark" stroke="none" stroke-width="1" fill="none" fill-rule="evenodd">
        <path d="M-5.68434189e-14,12.460835 C-5.68434189e-14,5.70988926 5.51251422,0.000318466215 12.670809,0.000318466215 C20.0459895,0.000318466215 25.2597542,5.70988926 25.2597542,12.460835 C25.2597542,19.2826873 20.0459895,24.8462116 12.670809,24.8462116 C5.51251422,24.8462116 -5.68434189e-14,19.2826873 -5.68434189e-14,12.460835 L-5.68434189e-14,12.460835 Z M22.1329838,12.460835 C22.1329838,7.1195553 18.3300401,2.74345239 12.670809,2.74345239 C7.08174681,2.74345239 3.13208619,7.1195553 3.13208619,12.460835 C3.13208619,17.8021146 7.08174681,22.0258212 12.670809,22.0258212 C18.3300401,22.0258212 22.1329838,17.8021146 22.1329838,12.460835 L22.1329838,12.460835 Z M11.8479187,13.719163 L11.8479187,18.0952659 L7.67499328,18.0952659 L7.67499328,6.15437855 L13.2640554,6.15437855 C16.6151538,6.15437855 18.2598711,7.41799811 18.2598711,9.93888739 C18.2598711,11.642763 17.5135288,12.7592778 16.0208441,13.3498136 L18.7776328,18.0952659 L14.1581778,18.0952659 L11.8479187,13.719163 Z M12.4422283,11.642763 C13.710585,11.642763 14.0816299,11.4247516 14.0816299,10.3082368 C14.0816299,9.12081543 13.4873202,9.0499088 12.594261,9.0499088 L11.8479187,9.0499088 L11.8479187,11.642763 L12.4422283,11.642763 Z" id="Fill-1" fill="#C8C8C8"></path>
        <path d="M332.298078,71.0514027 C320.236463,71.0514027 310.049209,60.7329013 310.049209,48.5147373 C310.049209,36.0986697 320.236463,25.6034309 332.298078,25.6034309 C344.567011,25.6034309 354.932876,36.0986697 354.932876,48.5147373 C354.932876,60.9403296 344.780707,71.0514027 332.298078,71.0514027" id="Fill-3" fill="#E42528"></path>
        <path d="M29.0439862,42.8637968 L29.0439862,42.6108612 C29.0439862,17.2897878 44.6385009,1.00348847 68.2833063,1.00348847 C82.2182193,1.00348847 89.6295475,5.32985092 93.5940924,9.27628085 L93.5940924,25.8144575 C89.3754509,23.1411719 82.0906394,20.4731778 73.9085161,20.4731778 C62.6644755,20.4731778 55.2478315,25.4355833 55.2478315,38.5384926 L55.2478315,45.9159566 C55.2478315,62.3334861 63.8116313,67.6747657 75.4416011,67.6747657 C80.939231,67.6747657 89.6295475,66.1486858 94.1065383,62.7123603 L94.1065383,76.9624753 C90.39609,81.0348439 83.7513043,85.9972494 69.9482238,85.9972494 C45.02443,85.9972494 29.0439862,70.47399 29.0439862,42.8637968" id="Fill-5" fill="#C8C8C8"></path>
        <polygon id="Fill-7" fill="#C8C8C8" points="102.856711 2.78567887 127.527471 2.78567887 127.527471 33.321035 152.192916 33.321035 152.192916 2.78567887 176.863676 2.78567887 176.863676 84.0901786 152.192916 84.0901786 152.192916 52.4065585 127.527471 52.4065585 127.527471 84.0901786 102.856711 84.0901786"></polygon>
        <polygon id="Fill-9" fill="#C8C8C8" points="188.199149 2.78567887 246.6116 2.78567887 246.6116 22.5083038 212.86991 22.5083038 212.86991 36.1213175 244.053623 36.1213175 244.053623 53.0436599 212.86991 53.0436599 212.86991 67.4197136 246.6116 67.4197136 246.6116 84.0901786 188.199149 84.0901786"></polygon>
        <path d="M424.937661,43.2457401 L424.937661,42.9928045 C424.937661,17.5457925 440.912789,1.00232433 465.969478,1.00232433 C491.020852,1.00232433 506.8684,17.5457925 506.8684,42.9928045 L506.8684,43.2457401 C506.8684,71.7449119 488.589392,86.0003185 465.969478,86.0003185 C443.598345,86.0003185 424.937661,71.7449119 424.937661,43.2457401 M481.050484,45.4089213 L481.050484,39.8094145 C481.050484,26.575275 476.705325,19.4560381 465.969478,19.4560381 C455.232567,19.4560381 450.882093,26.575275 450.882093,39.8094145 L450.882093,45.4089213 C450.882093,61.8211593 456.12669,68.4408748 465.969478,68.4408748 C475.812266,68.4408748 481.050484,61.8211593 481.050484,45.4089213" id="Fill-11" fill="#C8C8C8"></path>
        <polygon id="Fill-13" fill="#C8C8C8" points="514.714669 84.0910253 539.385429 84.0910253 539.385429 2.78652552 514.714669 2.78652552"></polygon>
        <polygon id="Fill-15" fill="#C8C8C8" points="550.735574 2.78567887 583.843617 2.78567887 604.416937 52.5335555 604.416937 2.78567887 625.254985 2.78567887 625.254985 84.0901786 595.986033 84.0901786 571.568306 27.7225865 571.568306 84.0901786 550.735574 84.0901786"></polygon>
        <polygon id="Fill-16" fill="#C8C8C8" points="630.465135 2.78419724 630.465135 22.5068221 652.830952 22.5068221 652.830952 84.088697 677.501712 84.088697 677.501712 22.5068221 700.000425 22.5068221 700.000425 2.78419724"></polygon>
        <path d="M387.846786,2.78567887 L354.612225,2.78567887 L354.612225,27.535266 C359.774958,33.0945571 362.987845,40.5069452 362.987845,48.5162189 C362.987845,56.303248 360.018423,63.6701289 354.612225,69.3849912 L354.612225,84.0901786 L379.282986,84.0901786 L379.282986,61.8212651 L388.100882,61.8212651 C411.751004,61.8212651 421.716056,51.1334142 421.716056,32.1748876 C421.716056,12.8364284 411.365074,2.78567887 387.846786,2.78567887 M385.547158,45.1560915 L379.282986,45.1560915 L379.282986,21.1081625 L386.313701,21.1081625 C394.623404,21.1081625 397.563057,24.9233623 397.563057,32.9421608 C397.563057,40.956726 394.365055,45.1560915 385.547158,45.1560915" id="Fill-17" fill="#C8C8C8"></path>
        <path d="M301.988074,48.5171714 C301.988074,45.4597201 302.454804,42.4943415 303.307463,39.6845342 L281.353091,39.6845342 L281.353091,22.5092562 L314.201722,22.5092562 L314.201722,2.78663135 L256.682331,2.78663135 L256.682331,84.0858396 L281.353091,84.0858396 L281.353091,57.8810792 L303.510528,57.8810792 C302.531352,54.9146423 301.988074,51.7661765 301.988074,48.5171714" id="Fill-18" fill="#C8C8C8"></path>
    </g>
</svg>